<svg width="970" height="205" viewBox="0 0 970 205" fill="none" xmlns="http://www.w3.org/2000/svg">
<g clip-path="url(#clip0_9_2)">
<path d="M69.7266 97.1307L43.3394 121.827L29.1207 117.505C29.1207 117.505 27.7319 110.14 29.8482 98.1891L69.7266 97.1307Z" fill="#007AB4"/>
<path d="M85.4443 134.704L127.307 147.604L116.439 95.5211L97.1058 96.1165L85.4443 134.704Z" fill="#21A9E1"/>
<path d="M191.809 87.6272L208.893 71.6849C208.893 71.6849 201.31 54.552 187.554 42.226L145.758 73.5371L191.787 87.6272H191.809Z" fill="#21A9E1"/>
<path d="M85.4443 134.704L68.933 187.955C51.2093 175.563 38.203 157.416 32.1629 136.711C31.8983 135.322 31.6338 133.976 31.3913 132.742L43.3614 121.805L85.4443 134.682V134.704Z" fill="#21A9E1"/>
<path d="M140.203 203.456C140.203 203.456 140.203 203.456 140.181 203.456C129.114 205.485 117.475 205.551 105.747 203.368C95.5407 201.472 86.0395 197.988 77.4201 193.247L127.285 147.648L140.203 203.478V203.456Z" fill="#8BD2EF"/>
<path d="M159.668 117.593L201.927 163.435C201.927 163.435 222.715 138.651 216.278 95.3006L191.831 87.6492L159.69 117.615L159.668 117.593Z" fill="#8BD2EF"/>
<path d="M129.798 85.5323L116.439 95.5211L127.307 147.603L159.668 117.593" fill="#8BD2EF"/>
<path d="M43.3394 121.827L69.7487 97.1528L97.1058 96.1165L85.4443 134.704L43.3394 121.827Z" fill="#8BD2EF"/>
<path d="M43.3394 121.827L31.3693 132.742C31.3693 132.742 29.1648 122.422 29.0987 117.483L43.3394 121.827Z" fill="#007AB4"/>
<path d="M127.307 147.604L77.4422 193.225C74.5103 191.616 71.6665 189.852 68.9551 187.933L85.4664 134.682L127.307 147.581V147.604Z" fill="#007AB4"/>
<path d="M197.43 169.014C183.233 186.919 162.886 199.267 140.203 203.434C140.203 203.434 140.203 203.434 140.181 203.434L127.285 147.604L197.43 169.014Z" fill="#007AB4"/>
<path d="M191.809 87.6272L208.893 71.6849C208.893 71.6849 213.479 80.1301 216.256 95.2786L191.809 87.6272Z" fill="#007AB4"/>
<path d="M129.798 85.5324L145.78 73.5592L191.809 87.6272L159.668 117.593L129.798 85.5324Z" fill="#007AB4"/>
<path d="M127.285 147.603L197.827 169.124C200.031 166.412 201.927 163.413 201.927 163.413L159.668 117.571L127.285 147.581V147.603Z" fill="#21A9E1"/>
<path d="M0 88.5312L89.3682 15.6555L205.212 15.854L112.824 85.0693L0 88.5312Z" fill="#614E9B"/>
<path d="M11.3529 137.086L8.97211 144.009L8.70758 160.591L20.4132 160.789L20.6998 144.12L18.9803 137.218L11.3529 137.086Z" fill="#A9DCF2"/>
<path d="M80.0434 39.9989L69.7046 40.4179L10.7357 88.2887L20.6336 87.9359L80.0434 39.9989Z" fill="#A9DCF2"/>
<path d="M19.9723 125.002L10.6034 124.848L10.7357 88.2886L20.6336 87.8917L19.9723 125.002Z" fill="#A9DCF2"/>
<path d="M15.2989 138.497C19.5357 138.497 22.9703 135.061 22.9703 130.823C22.9703 126.585 19.5357 123.15 15.2989 123.15C11.062 123.15 7.62738 126.585 7.62738 130.823C7.62738 135.061 11.062 138.497 15.2989 138.497Z" fill="#09426D"/>
<path d="M942.841 13.5829C942.841 11.2014 943.459 8.86413 944.649 6.81346C945.817 4.74075 947.537 3.02084 949.609 1.83014C956.09 -1.94044 964.401 0.264576 968.17 6.76936C971.94 13.2521 969.736 21.565 963.232 25.3356C956.751 29.1061 948.441 26.9011 944.671 20.3963C943.459 18.3236 942.841 15.9643 942.841 13.5608M944.737 13.5829C944.759 20.0435 950.006 25.2474 956.465 25.2253C958.493 25.2253 960.477 24.6961 962.218 23.6818C963.982 22.6455 965.459 21.1901 966.473 19.4261C968.567 15.8099 968.567 11.3558 966.473 7.73957C965.459 5.97556 963.982 4.4982 962.218 3.46185C958.603 1.36708 954.15 1.36708 950.535 3.46185C948.771 4.47615 947.294 5.95351 946.28 7.71752C945.244 9.48153 944.693 11.5101 944.715 13.5608M961.888 10.2753C961.888 11.1794 961.623 12.0834 961.116 12.8331C960.587 13.5829 959.838 14.1782 958.956 14.4869L963.254 21.6091H960.234L956.509 15.2366H954.084V21.6312H951.417V5.55661H956.134C958.118 5.55661 959.595 5.95351 960.521 6.72526C961.447 7.49702 961.932 8.68772 961.91 10.2974M954.084 13.0316H956.024C956.862 13.0757 957.677 12.8111 958.339 12.2819C958.912 11.8188 959.22 11.1132 959.22 10.3635C959.286 9.63588 959 8.90823 958.449 8.42312C957.721 7.96007 956.862 7.73957 955.98 7.80572H954.062V13.0095L954.084 13.0316Z" fill="#614E9B"/>
<path d="M681.262 30.0763C681.769 30.4291 682.188 30.8921 682.54 31.3993C682.849 31.8403 683.025 32.3695 683.025 32.9208C683.025 33.5382 682.849 34.1335 682.452 34.6186L678.683 40.8368C677.867 41.9613 677.051 42.5346 676.214 42.5346C675.839 42.5346 675.464 42.4464 675.111 42.2921C674.626 42.0716 674.163 41.807 673.723 41.4762C670.438 39.1168 666.801 37.2646 662.987 35.9416C659.151 34.6627 655.161 33.891 651.105 33.6705C639.796 33.5382 628.884 37.9261 620.816 45.8642C617.068 49.5686 614.07 53.9566 611.998 58.7856C609.882 63.6807 608.78 68.9507 608.802 74.2868C608.758 79.7993 609.86 85.2457 612.064 90.2952C619.383 106.833 636.82 116.447 654.698 113.801C656.704 113.492 658.688 113.007 660.606 112.345C662.744 111.596 664.861 110.736 666.889 109.721C669.27 108.531 671.584 107.23 673.833 105.796C674.494 105.355 675.244 105.091 676.037 105.025C676.897 105.025 677.669 105.62 678.374 106.789L682.43 113.47C682.739 113.977 682.915 114.572 682.937 115.168C682.937 116.314 682.276 117.373 681.24 117.858C676.743 121.099 671.805 123.635 666.558 125.421C660.981 127.273 655.139 128.199 649.253 128.155C644.381 128.155 639.532 127.538 634.814 126.237C630.295 125.002 625.952 123.15 621.896 120.768C617.906 118.409 614.247 115.543 610.984 112.279C600.822 102.136 595.156 88.3548 595.2 74.0001C595.178 64.4083 597.713 54.9709 602.585 46.7021C604.944 42.689 607.788 39.0066 611.05 35.6991C614.313 32.4136 617.994 29.5471 622.006 27.2098C626.084 24.8504 630.427 23.0423 634.968 21.7854C639.664 20.4624 644.514 19.823 649.408 19.845C655.117 19.823 660.782 20.705 666.205 22.469C671.562 24.2551 676.632 26.8349 681.218 30.0983L681.262 30.0763Z" fill="#614E9B"/>
<path d="M707.869 123.415C707.869 125.487 706.833 126.524 704.761 126.524H697.442C695.216 126.524 694.114 125.487 694.114 123.415V12.8331C694.07 11.9732 694.4 11.1573 695.04 10.562C695.635 10.0107 696.428 9.70202 697.244 9.70202H704.629C705.511 9.65792 706.37 9.98868 707.01 10.6281C707.583 11.2235 707.914 11.9952 707.891 12.8331V123.415H707.869Z" fill="#614E9B"/>
<path d="M798.781 114.55C794.725 118.718 789.919 122.047 784.584 124.385C779.073 126.81 773.099 128.023 767.081 127.957C762.936 127.957 758.836 127.406 754.846 126.281C750.966 125.201 747.241 123.591 743.78 121.54C736.88 117.439 731.104 111.64 727.004 104.738C724.932 101.254 723.345 97.5057 722.242 93.6028C720.016 85.5545 720.016 77.0431 722.242 68.9949C723.323 65.114 724.932 61.3876 727.004 57.9257C729.054 54.4859 731.523 51.3107 734.345 48.4882C740.032 42.7993 747.087 38.6539 754.846 36.4709C758.858 35.3464 762.981 34.7951 767.147 34.7951C773.165 34.751 779.139 35.9638 784.65 38.3672C789.963 40.7045 794.791 44.0562 798.847 48.2016V39.4918C798.847 37.397 799.883 36.3607 801.955 36.3607H809.274C811.5 36.3607 812.603 37.397 812.603 39.4918V123.415C812.647 124.275 812.294 125.09 811.677 125.686C811.082 126.237 810.288 126.546 809.472 126.546H802.087C801.206 126.59 800.346 126.259 799.707 125.62C799.133 125.024 798.803 124.252 798.825 123.415L798.781 114.55ZM799.486 81.2988C799.486 76.9329 798.626 72.589 796.929 68.5538C795.298 64.6069 792.939 61.0127 789.985 57.9477C787.031 54.9048 783.548 52.4573 779.69 50.7153C775.744 48.9072 771.446 48.0031 767.125 48.0252C762.804 48.0031 758.55 48.9292 754.626 50.7153C750.79 52.4573 747.329 54.9269 744.419 57.9477C741.487 61.0127 739.151 64.6069 737.541 68.5318C734.191 76.6683 734.191 85.8191 737.541 93.9556C739.151 97.9246 741.487 101.563 744.419 104.716C747.329 107.803 750.79 110.295 754.626 112.103C758.528 113.955 762.804 114.903 767.125 114.881C771.468 114.881 775.766 113.955 779.69 112.103C783.57 110.317 787.053 107.803 789.985 104.716C792.939 101.585 795.276 97.9467 796.929 93.9556C798.626 89.9425 799.486 85.6427 799.486 81.2768V81.2988Z" fill="#614E9B"/>
<path d="M820.054 108.95C819.811 108.244 819.657 107.671 819.547 107.208C819.458 106.833 819.459 106.436 819.591 106.083C819.723 105.774 819.899 105.488 820.164 105.267C820.495 104.981 820.869 104.738 821.266 104.562L828.034 101.43C829.224 100.967 830.128 101.012 830.811 101.607C831.473 102.202 832.002 102.952 832.377 103.768C833.104 105.642 834.25 107.296 835.749 108.619C837.248 109.986 838.946 111.155 840.753 112.059C842.495 112.941 844.325 113.602 846.22 114.087C847.764 114.506 849.373 114.727 850.982 114.771C852.988 114.749 854.994 114.484 856.934 113.999C859.094 113.492 861.167 112.676 863.084 111.596C864.958 110.537 866.612 109.104 867.912 107.384C869.235 105.62 869.918 103.437 869.852 101.232C869.852 98.6742 869.235 96.6236 868 95.08C866.7 93.4704 865.068 92.1474 863.217 91.2213C861.123 90.1408 858.918 89.325 856.625 88.7517C854.179 88.1343 851.776 87.4948 849.351 86.8333C845.427 85.819 841.613 84.4298 837.954 82.6879C834.868 81.2105 832.002 79.3142 829.445 77.021C827.174 74.9483 825.344 72.4346 824.088 69.6342C822.831 66.6795 822.192 63.5043 822.236 60.307C822.192 56.7349 822.942 53.2069 824.441 49.9434C825.895 46.8564 827.99 44.1222 830.591 41.9392C833.369 39.624 836.587 37.882 840.026 36.7575C843.95 35.4786 848.05 34.8612 852.194 34.9053C855.347 34.8612 858.499 35.1919 861.585 35.8975C864.054 36.4929 866.413 37.4851 868.574 38.8302C870.646 40.1752 872.542 41.7849 874.173 43.6592C875.87 45.5775 877.656 47.7825 879.486 50.2962C879.971 51.0459 880.301 51.8839 880.411 52.7659C880.456 53.4494 880.037 54.133 879.133 54.7945L873.6 58.984C872.52 59.6014 871.682 59.7557 871.131 59.4911C870.403 59.0722 869.786 58.5209 869.279 57.8594C868.199 56.5805 867.119 55.3457 866.083 54.1771C865.024 52.9864 863.834 51.928 862.533 51.0239C861.145 50.0757 859.624 49.326 858.036 48.8189C856.096 48.2456 854.068 47.9589 852.04 48.003C850.012 48.003 847.984 48.2456 846.022 48.7086C844.17 49.1496 842.407 49.9214 840.82 50.9798C839.299 51.9941 838.042 53.3392 837.138 54.9047C836.19 56.6246 835.705 58.5871 835.749 60.5495C835.749 62.2254 836.367 63.8571 837.447 65.1139C838.681 66.5913 840.136 67.8702 841.745 68.9065C843.553 70.0752 845.471 71.0454 847.499 71.8172C849.461 72.5889 851.489 73.2284 853.517 73.7355C857.728 74.6837 861.85 76.0067 865.818 77.7046C869.257 79.1378 872.475 81.0782 875.363 83.4376C877.942 85.5764 880.037 88.2225 881.514 91.1992C883.013 94.3303 883.762 97.7702 883.718 101.232C883.762 105.069 882.925 108.861 881.249 112.301C879.64 115.565 877.303 118.431 874.437 120.68C871.329 123.084 867.802 124.87 864.054 125.972C859.8 127.229 855.369 127.869 850.938 127.824C847.852 127.824 844.766 127.428 841.745 126.678C838.637 125.928 835.639 124.76 832.839 123.216C830.04 121.628 827.483 119.644 825.256 117.329C822.964 114.925 821.178 112.081 820.054 108.95Z" fill="#614E9B"/>
<path d="M887.576 108.95C887.377 108.376 887.201 107.803 887.069 107.208C886.981 106.833 886.981 106.436 887.113 106.083C887.245 105.774 887.422 105.488 887.686 105.267C888.017 104.981 888.391 104.738 888.788 104.562L895.556 101.43C896.746 100.967 897.65 101.012 898.312 101.607C898.973 102.202 899.524 102.952 899.877 103.768C900.604 105.642 901.75 107.296 903.249 108.619C904.748 109.986 906.424 111.155 908.254 112.059C909.995 112.941 911.825 113.602 913.721 114.087C915.264 114.506 916.873 114.727 918.46 114.771C920.466 114.749 922.472 114.484 924.412 113.999C926.572 113.492 928.645 112.676 930.563 111.596C932.436 110.537 934.09 109.104 935.39 107.384C936.713 105.598 937.396 103.437 937.33 101.232C937.33 98.6742 936.713 96.6236 935.478 95.08C934.178 93.4704 932.547 92.1474 930.695 91.2213C928.601 90.1408 926.396 89.325 924.104 88.7517C921.657 88.1343 919.254 87.4948 916.829 86.8333C912.905 85.819 909.091 84.4298 905.454 82.6879C902.368 81.2105 899.502 79.3142 896.945 77.021C894.674 74.9483 892.845 72.4346 891.588 69.6342C890.331 66.6795 889.692 63.5043 889.736 60.307C889.692 56.7349 890.442 53.2069 891.941 49.9434C893.396 46.8564 895.49 44.1443 898.091 41.9392C900.869 39.624 904.087 37.882 907.526 36.7575C911.45 35.4786 915.55 34.8612 919.695 34.9053C922.847 34.8612 926.021 35.1919 929.086 35.8975C931.555 36.4929 933.913 37.4851 936.074 38.8302C938.146 40.1752 940.042 41.7849 941.673 43.6592C943.37 45.5775 945.156 47.7825 946.986 50.2962C947.471 51.0459 947.801 51.8839 947.912 52.7659C947.956 53.4494 947.537 54.133 946.633 54.7945L941.1 58.984C940.02 59.6014 939.182 59.7557 938.631 59.4911C937.903 59.0722 937.286 58.5209 936.779 57.8594C935.699 56.5805 934.619 55.3457 933.583 54.1771C932.525 52.9864 931.334 51.928 930.034 51.0239C928.645 50.0757 927.124 49.326 925.536 48.8189C923.597 48.2456 921.568 47.9589 919.54 48.003C917.512 48.003 915.484 48.2456 913.522 48.7086C911.67 49.1496 909.907 49.9214 908.32 50.9798C906.799 51.9941 905.542 53.3392 904.638 54.9047C903.69 56.6246 903.205 58.5871 903.249 60.5495C903.249 62.2254 903.867 63.8571 904.947 65.1139C906.181 66.5913 907.636 67.8702 909.246 68.9065C911.053 70.0752 912.971 71.0454 914.999 71.8172C916.961 72.5889 918.967 73.2284 921.017 73.7355C925.228 74.6837 929.35 76.0067 933.318 77.7046C936.757 79.1378 939.976 81.0782 942.863 83.4376C945.42 85.5764 947.537 88.2225 949.014 91.1992C950.513 94.3303 951.262 97.7702 951.218 101.232C951.262 105.069 950.425 108.861 948.749 112.301C947.14 115.565 944.803 118.431 941.938 120.68C938.829 123.084 935.302 124.87 931.555 125.972C927.3 127.229 922.869 127.869 918.438 127.824C915.352 127.824 912.266 127.428 909.246 126.678C906.137 125.928 903.139 124.76 900.34 123.216C897.54 121.65 894.983 119.666 892.756 117.329C890.464 114.925 888.678 112.081 887.554 108.95H887.576Z" fill="#614E9B"/>
<path d="M282.5 122.709C282.037 121.915 281.574 121.077 281.155 120.239C280.736 119.401 280.361 118.541 280.031 117.681C273.946 101.651 267.884 85.7529 261.844 69.987C255.804 54.2212 249.742 38.323 243.657 22.2926C243.657 22.0501 243.613 21.8516 243.547 21.6532C243.481 21.4547 243.437 21.2783 243.437 21.0798C243.437 19.7568 244.319 19.0953 246.06 19.0953H268.832C270.618 19.0953 271.852 19.9994 272.514 21.7855L294.161 86.26L314.178 21.7855C314.839 19.9994 316.139 19.0953 318.057 19.0953H341.05C342.13 19.0953 342.901 19.2938 343.342 19.6907C343.783 20.0876 344.004 20.6168 344.004 21.2783C344.004 21.6532 343.982 21.9178 343.938 22.0501V22.2706L331.35 58.3666L340.829 86.1718L363.756 21.7855C364.417 19.9994 365.717 19.0953 367.657 19.0953H389.944C391.025 19.0953 391.796 19.2938 392.237 19.6907C392.678 20.0876 392.898 20.6168 392.898 21.2783C392.898 21.6532 392.876 21.9178 392.832 22.0501V22.2706C389.614 30.5835 386.351 38.8522 383 47.099C379.65 55.3457 376.299 63.6145 372.926 71.8613C369.553 80.108 366.202 88.3768 362.874 96.6677C359.545 104.936 356.304 113.205 353.152 121.474C352.954 122.003 352.535 122.577 351.874 123.216C351.212 123.855 350.419 124.164 349.471 124.164H332.144C331.108 124.164 330.314 123.966 329.763 123.569C329.212 123.172 328.837 122.643 328.595 121.981L317.418 92.5443C315.809 96.8441 314.244 101.056 312.679 105.179C311.113 109.302 309.57 113.514 308.005 117.814C307.763 118.475 307.498 119.181 307.189 119.909C306.881 120.636 306.528 121.32 306.087 121.959C305.668 122.599 305.183 123.128 304.632 123.547C304.081 123.966 303.464 124.186 302.759 124.186H285.432C283.933 124.186 282.941 123.701 282.456 122.709H282.5Z" fill="#21A9E1"/>
<path d="M464.388 113.448C460.244 117.263 455.571 120.261 450.39 122.4C445.21 124.539 439.699 125.62 433.901 125.62C427.442 125.62 421.336 124.451 415.582 122.092C409.828 119.732 404.78 116.469 400.437 112.301C396.095 108.134 392.656 103.217 390.099 97.5497C387.542 91.8829 386.285 85.7309 386.285 79.0717C386.285 74.9263 386.792 70.8911 387.806 67.0103C388.82 63.1074 390.253 59.4692 392.127 56.0735C393.978 52.6777 396.249 49.5466 398.916 46.7021C401.584 43.8577 404.56 41.4101 407.866 39.3815C411.173 37.3529 414.744 35.7653 418.624 34.6407C422.482 33.5162 426.56 32.9429 430.859 32.9429C434.783 32.9429 438.574 33.4721 442.256 34.5084C445.937 35.5448 449.398 37.0001 452.617 38.8964C455.857 40.7927 458.811 43.0418 461.501 45.6878C464.19 48.3339 466.505 51.2224 468.445 54.3535C470.385 57.4847 471.884 60.8363 472.942 64.4084C474 67.9805 474.529 71.6408 474.529 75.4114C474.529 77.859 474.485 79.8655 474.419 81.4311C474.353 82.9967 473.978 84.2315 473.316 85.1355C472.655 86.0616 471.553 86.7011 470.032 87.0539C468.489 87.4067 466.24 87.5831 463.286 87.5831H412.342C412.804 90.6039 413.774 93.1177 415.207 95.1463C416.64 97.1749 418.316 98.7845 420.189 99.9973C422.085 101.21 424.069 102.07 426.207 102.577C428.324 103.106 430.33 103.349 432.226 103.349C433.923 103.349 435.665 103.173 437.45 102.82C439.236 102.467 440.977 102.004 442.653 101.409C444.328 100.813 445.849 100.13 447.26 99.3578C448.649 98.5861 449.773 97.7702 450.611 96.9103C451.36 96.2929 452.021 95.8298 452.551 95.5211C453.102 95.2124 453.675 95.0581 454.292 95.0581C454.909 95.0581 455.527 95.2786 456.166 95.6975C456.805 96.1165 457.511 96.7339 458.326 97.5277L465.821 106.017C466.35 106.634 466.681 107.186 466.813 107.671C466.946 108.156 467.034 108.663 467.034 109.192C467.034 110.14 466.769 110.956 466.262 111.64C465.733 112.323 465.138 112.919 464.433 113.448H464.388ZM430.352 54.5079C428.522 54.5079 426.737 54.8827 425.017 55.6104C423.298 56.3381 421.688 57.3303 420.167 58.5431C418.668 59.7779 417.301 61.167 416.089 62.7105C414.877 64.2761 413.907 65.8417 413.157 67.4513H449.31C448.318 65.6212 447.238 63.9233 446.092 62.3577C444.945 60.7922 443.623 59.4251 442.124 58.2564C440.647 57.0878 438.949 56.1617 437.031 55.5001C435.113 54.8386 432.887 54.5079 430.352 54.5079Z" fill="#21A9E1"/>
<path d="M514.385 118.74C513.966 119.644 513.614 120.438 513.327 121.121C513.041 121.805 512.732 122.378 512.379 122.819C512.027 123.26 511.586 123.613 511.079 123.856C510.55 124.098 509.844 124.208 508.962 124.208H494.964C491.195 124.208 489.299 122.4 489.299 118.762V13.0316C489.299 12.2378 489.453 11.5101 489.762 10.8486C490.07 10.1871 490.467 9.61383 490.974 9.15078C491.459 8.68772 492.032 8.31287 492.672 8.04827C493.311 7.78367 493.928 7.65137 494.545 7.65137H510.594C512.379 7.65137 513.79 8.18057 514.848 9.21693C515.884 10.2533 516.413 11.5322 516.413 13.0316V42.4685C517.736 41.0573 519.147 39.7563 520.668 38.5877C522.167 37.419 523.82 36.4047 525.584 35.5889C527.347 34.773 529.287 34.1115 531.426 33.6485C533.542 33.1854 535.901 32.9429 538.502 32.9429C544.917 32.9429 550.825 34.1336 556.226 36.515C561.627 38.8964 566.278 42.1819 570.158 46.3493C574.06 50.5168 577.08 55.434 579.284 61.0788C581.467 66.7237 582.569 72.8095 582.569 79.3804C582.569 85.9514 581.467 91.971 579.284 97.6379C577.102 103.305 574.06 108.222 570.158 112.389C566.256 116.557 561.627 119.864 556.226 122.268C550.825 124.671 544.917 125.884 538.502 125.884C536.099 125.884 533.806 125.575 531.602 124.958C529.42 124.341 527.347 123.547 525.407 122.555C523.468 121.562 521.704 120.438 520.073 119.203C518.441 117.946 516.987 116.689 515.73 115.41L514.451 118.806L514.385 118.74ZM557.063 79.3363C557.063 76.3155 556.578 73.4489 555.608 70.6927C554.638 67.9585 553.272 65.555 551.464 63.4823C549.678 61.4096 547.518 59.7779 545.027 58.5651C542.536 57.3524 539.714 56.757 536.606 56.757C533.498 56.757 530.588 57.3524 527.876 58.5651C525.165 59.7779 522.828 61.4096 520.844 63.4823C518.86 65.555 517.295 67.9585 516.149 70.6927C515.003 73.4269 514.407 76.3155 514.407 79.3363V80.3286C514.54 83.3053 515.223 86.0837 516.413 88.6856C517.626 91.2875 519.213 93.5366 521.197 95.4329C523.181 97.3513 525.496 98.8507 528.141 99.9311C530.786 101.012 533.608 101.563 536.628 101.563C539.648 101.563 542.536 100.99 545.049 99.8209C547.54 98.6743 549.7 97.0867 551.486 95.1242C553.272 93.1397 554.661 90.8024 555.63 88.0902C556.6 85.3781 557.085 82.4674 557.085 79.3584L557.063 79.3363Z" fill="#21A9E1"/>
<path d="M272.734 150.36C273.55 150.36 273.946 150.779 273.946 151.617V154.241C273.946 154.571 273.836 154.858 273.638 155.101C273.439 155.343 273.109 155.475 272.668 155.475H251.395V166.324H268.127C268.435 166.324 268.722 166.412 268.942 166.611C269.163 166.809 269.295 167.118 269.295 167.537V170.227C269.295 170.536 269.207 170.822 269.008 171.065C268.81 171.307 268.523 171.44 268.149 171.44H251.417V184.427H272.8C273.616 184.427 274.013 184.846 274.013 185.662V188.374C274.013 189.146 273.616 189.543 272.844 189.543H247.471C246.699 189.543 246.303 189.168 246.303 188.44V151.572C246.303 150.757 246.677 150.36 247.471 150.36H272.756H272.734Z" fill="#676767"/>
<path d="M313.141 189.565C312.37 189.565 311.973 189.168 311.973 188.396V185.199C310.452 186.742 308.711 187.955 306.704 188.837C304.698 189.719 302.516 190.16 300.179 190.16C298.614 190.16 297.093 189.962 295.638 189.543C294.183 189.124 292.794 188.551 291.516 187.779C290.237 187.029 289.069 186.125 288.011 185.067C286.953 184.008 286.049 182.84 285.277 181.561C284.506 180.282 283.933 178.893 283.514 177.437C283.095 175.96 282.896 174.438 282.896 172.851C282.896 171.263 283.095 169.742 283.514 168.264C283.933 166.787 284.528 165.42 285.277 164.119C286.049 162.818 286.953 161.649 288.011 160.591C289.069 159.533 290.237 158.629 291.516 157.857C292.794 157.085 294.183 156.512 295.638 156.093C297.093 155.674 298.614 155.475 300.201 155.475C302.538 155.475 304.72 155.916 306.727 156.798C308.733 157.68 310.496 158.915 311.995 160.459V147.229C311.995 146.92 312.105 146.633 312.326 146.413C312.546 146.192 312.833 146.06 313.208 146.06H315.963C316.272 146.06 316.558 146.17 316.779 146.369C316.999 146.589 317.131 146.854 317.131 147.207V188.352C317.131 189.124 316.713 189.521 315.897 189.521H313.186L313.141 189.565ZM312.26 172.851C312.26 171.219 311.951 169.632 311.312 168.132C310.672 166.611 309.813 165.288 308.733 164.141C307.652 162.994 306.374 162.068 304.897 161.385C303.42 160.701 301.877 160.348 300.223 160.348C298.57 160.348 297.027 160.701 295.572 161.385C294.117 162.068 292.861 162.994 291.78 164.141C290.7 165.288 289.84 166.633 289.223 168.132C288.606 169.654 288.297 171.219 288.297 172.851C288.297 174.483 288.606 176.114 289.223 177.592C289.84 179.069 290.7 180.392 291.78 181.517C292.861 182.641 294.117 183.545 295.572 184.207C297.027 184.868 298.57 185.221 300.223 185.221C301.877 185.221 303.442 184.89 304.897 184.207C306.374 183.545 307.652 182.641 308.733 181.517C309.813 180.392 310.672 179.091 311.312 177.592C311.951 176.092 312.26 174.505 312.26 172.851Z" fill="#676767"/>
<path d="M351.08 185.662C350.573 186.279 350.044 186.831 349.493 187.316C348.942 187.801 348.324 188.22 347.619 188.551C346.914 188.881 346.142 189.146 345.26 189.322C344.378 189.499 343.364 189.587 342.196 189.587C340.036 189.587 338.118 189.212 336.464 188.462C334.811 187.713 333.422 186.698 332.298 185.397C331.174 184.096 330.336 182.597 329.763 180.855C329.19 179.113 328.903 177.239 328.903 175.254V157.328C328.903 156.732 329.058 156.291 329.366 155.982C329.675 155.674 330.072 155.541 330.535 155.541H332.496C333.136 155.541 333.577 155.674 333.753 155.938C333.929 156.203 334.04 156.644 334.04 157.261V175.254C334.04 176.313 334.194 177.393 334.48 178.496C334.767 179.598 335.252 180.59 335.913 181.494C336.575 182.399 337.456 183.126 338.537 183.677C339.617 184.251 340.962 184.515 342.549 184.515C343.541 184.515 344.555 184.339 345.569 183.964C346.583 183.589 347.487 183.082 348.324 182.376C349.14 181.671 349.801 180.811 350.33 179.775C350.86 178.738 351.102 177.547 351.102 176.202V156.688C351.102 155.916 351.477 155.519 352.27 155.519H354.982C355.82 155.519 356.216 155.916 356.216 156.688V187.889C356.216 188.242 356.106 188.528 355.864 188.727C355.643 188.947 355.357 189.036 355.048 189.036H352.314C351.94 189.036 351.653 188.925 351.433 188.683C351.212 188.462 351.102 188.176 351.102 187.867V185.64L351.08 185.662Z" fill="#676767"/>
<path d="M391.201 181.935C391.333 181.825 391.465 181.715 391.62 181.605C391.774 181.494 391.928 181.406 392.105 181.362C392.281 181.318 392.435 181.318 392.612 181.362C392.788 181.406 392.942 181.561 393.119 181.781C393.471 182.266 393.758 182.641 393.978 182.95C394.199 183.258 394.375 183.479 394.53 183.655C394.662 183.854 394.772 183.986 394.838 184.074C394.926 184.207 394.993 184.361 395.059 184.493C395.125 184.626 395.125 184.78 395.103 184.956C395.059 185.133 394.97 185.309 394.816 185.508C394.662 185.706 394.441 185.927 394.111 186.191C393.361 186.786 392.568 187.338 391.752 187.823C390.936 188.308 390.077 188.727 389.173 189.08C388.269 189.433 387.321 189.697 386.329 189.896C385.337 190.094 384.279 190.182 383.177 190.182C381.612 190.182 380.09 189.984 378.636 189.565C377.181 189.146 375.792 188.55 374.513 187.801C373.235 187.051 372.044 186.125 370.986 185.067C369.928 184.008 369.002 182.84 368.231 181.561C367.459 180.282 366.864 178.893 366.445 177.437C366.026 175.96 365.806 174.438 365.806 172.851C365.806 171.263 366.026 169.742 366.445 168.264C366.864 166.787 367.459 165.42 368.231 164.141C369.002 162.862 369.928 161.693 370.986 160.635C372.044 159.577 373.235 158.673 374.513 157.901C375.792 157.129 377.181 156.556 378.636 156.137C380.09 155.718 381.612 155.519 383.177 155.519C384.169 155.519 385.139 155.608 386.109 155.806C387.079 155.982 388.026 156.247 388.93 156.578C389.834 156.909 390.694 157.283 391.487 157.724C392.281 158.165 393.009 158.651 393.648 159.158C393.78 159.268 393.912 159.378 394.089 159.51C394.265 159.643 394.397 159.797 394.508 159.951C394.618 160.128 394.706 160.304 394.728 160.503C394.772 160.701 394.728 160.922 394.596 161.142L392.678 163.678C392.215 164.273 391.686 164.273 391.091 163.656C390.628 163.171 390.077 162.708 389.459 162.333C388.842 161.936 388.181 161.583 387.475 161.297C386.77 161.01 386.042 160.789 385.293 160.613C384.543 160.459 383.794 160.37 383.044 160.37C381.501 160.37 380.002 160.701 378.547 161.385C377.092 162.068 375.836 162.95 374.712 164.097C373.609 165.244 372.706 166.567 372.044 168.088C371.383 169.609 371.052 171.197 371.052 172.873C371.052 174.549 371.383 176.158 372.044 177.658C372.706 179.157 373.587 180.48 374.69 181.605C375.792 182.729 377.07 183.633 378.525 184.273C379.98 184.934 381.479 185.265 383.044 185.265C384.014 185.265 384.896 185.177 385.668 184.978C386.439 184.802 387.167 184.537 387.806 184.251C388.445 183.942 389.041 183.589 389.592 183.192C390.143 182.795 390.672 182.376 391.179 181.958L391.201 181.935Z" fill="#676767"/>
<path d="M433.129 185.089C431.608 186.632 429.867 187.845 427.861 188.749C425.855 189.631 423.672 190.072 421.336 190.072C419.77 190.072 418.249 189.874 416.794 189.455C415.34 189.036 413.951 188.462 412.672 187.691C411.394 186.919 410.225 186.015 409.167 184.956C408.109 183.898 407.205 182.729 406.434 181.428C405.662 180.127 405.089 178.76 404.67 177.283C404.251 175.806 404.053 174.284 404.053 172.697C404.053 171.109 404.251 169.587 404.67 168.11C405.089 166.633 405.684 165.266 406.434 163.987C407.205 162.708 408.109 161.539 409.167 160.481C410.225 159.422 411.394 158.518 412.672 157.769C413.951 157.019 415.34 156.424 416.794 156.005C418.249 155.586 419.77 155.387 421.358 155.387C423.694 155.387 425.877 155.828 427.883 156.71C429.889 157.592 431.652 158.827 433.151 160.371V157.151C433.151 156.379 433.548 155.983 434.32 155.983H437.031C437.869 155.983 438.266 156.379 438.266 157.151V188.374C438.266 188.727 438.156 189.014 437.913 189.212C437.693 189.433 437.406 189.521 437.097 189.521H434.342C433.967 189.521 433.681 189.411 433.46 189.168C433.24 188.947 433.129 188.661 433.129 188.352V185.045V185.089ZM433.394 172.719C433.394 171.065 433.085 169.477 432.446 167.978C431.807 166.478 430.947 165.155 429.867 164.031C428.787 162.906 427.508 162.002 426.031 161.341C424.554 160.679 423.011 160.326 421.358 160.326C419.704 160.326 418.161 160.657 416.706 161.341C415.251 162.002 413.995 162.906 412.915 164.031C411.834 165.155 410.975 166.478 410.357 167.978C409.74 169.477 409.432 171.065 409.432 172.719C409.432 174.372 409.74 175.938 410.357 177.437C410.975 178.959 411.834 180.282 412.915 181.428C413.995 182.575 415.251 183.501 416.706 184.185C418.161 184.868 419.704 185.221 421.358 185.221C423.011 185.221 424.576 184.868 426.031 184.185C427.508 183.501 428.787 182.575 429.867 181.428C430.947 180.282 431.807 178.937 432.446 177.437C433.085 175.916 433.394 174.35 433.394 172.719Z" fill="#676767"/>
<path d="M458.591 189.918C457.775 189.918 456.959 189.829 456.144 189.631C455.328 189.433 454.601 189.102 453.939 188.617C453.278 188.132 452.749 187.47 452.352 186.632C451.933 185.794 451.735 184.736 451.735 183.435V160.547H448.671C448.23 160.547 447.899 160.481 447.701 160.348C447.48 160.216 447.392 159.929 447.392 159.466V157.019C447.392 156.556 447.502 156.269 447.701 156.159C447.899 156.049 448.23 155.982 448.671 155.982H451.735V150.36C451.735 150.051 451.801 149.853 451.911 149.72C452.044 149.588 452.242 149.478 452.551 149.39C452.661 149.345 452.881 149.323 453.19 149.279C453.521 149.235 453.851 149.169 454.204 149.103C454.623 149.037 455.086 148.949 455.571 148.86C455.879 148.816 456.1 148.86 456.276 148.904C456.452 148.971 456.585 149.081 456.651 149.213C456.739 149.345 456.783 149.522 456.805 149.698C456.805 149.875 456.827 150.073 456.827 150.294V155.96H460.487C460.883 155.96 461.192 156.049 461.368 156.225C461.545 156.401 461.655 156.71 461.655 157.173V159.268C461.655 159.731 461.567 160.04 461.368 160.238C461.192 160.437 460.883 160.525 460.487 160.525H456.827V183.347C456.827 183.964 456.981 184.383 457.268 184.648C457.555 184.89 457.974 185.023 458.503 185.023C458.899 185.023 459.23 185.155 459.495 185.397C459.759 185.64 459.891 185.993 459.891 186.434V188.595C459.891 188.992 459.759 189.322 459.517 189.565C459.274 189.807 458.943 189.918 458.547 189.918H458.591Z" fill="#676767"/>
<path d="M476.579 149.941C476.579 150.713 476.182 151.109 475.411 151.109H472.699C471.861 151.109 471.465 150.713 471.465 149.941V147.229C471.465 146.876 471.575 146.589 471.817 146.391C472.038 146.17 472.324 146.082 472.633 146.082H475.367C475.741 146.082 476.028 146.192 476.248 146.413C476.469 146.633 476.579 146.92 476.579 147.251V149.963V149.941ZM476.579 188.396C476.579 189.168 476.182 189.565 475.411 189.565H472.699C471.861 189.565 471.465 189.168 471.465 188.396V157.195C471.465 156.842 471.575 156.556 471.817 156.357C472.038 156.137 472.324 156.049 472.633 156.049H475.367C475.741 156.049 476.028 156.159 476.248 156.401C476.469 156.622 476.579 156.909 476.579 157.217V188.418V188.396Z" fill="#676767"/>
<path d="M487.932 172.851C487.932 170.469 488.395 168.242 489.321 166.126C490.247 164.009 491.503 162.179 493.068 160.591C494.633 159.003 496.485 157.769 498.579 156.842C500.674 155.938 502.9 155.475 505.259 155.475C506.824 155.475 508.345 155.674 509.822 156.093C511.299 156.512 512.666 157.085 513.966 157.857C515.267 158.628 516.413 159.533 517.471 160.591C518.53 161.649 519.433 162.818 520.205 164.119C520.977 165.42 521.572 166.787 521.969 168.264C522.387 169.742 522.586 171.263 522.586 172.851C522.586 174.438 522.387 175.96 521.969 177.437C521.55 178.915 520.954 180.282 520.205 181.561C519.455 182.84 518.53 184.008 517.471 185.067C516.413 186.125 515.245 187.029 513.966 187.779C512.688 188.528 511.299 189.124 509.822 189.543C508.345 189.962 506.824 190.16 505.259 190.16C503.694 190.16 502.173 189.962 500.696 189.543C499.219 189.124 497.852 188.551 496.551 187.779C495.273 187.029 494.104 186.125 493.046 185.067C491.988 184.008 491.084 182.84 490.335 181.561C489.585 180.282 488.99 178.893 488.571 177.437C488.152 175.96 487.932 174.438 487.932 172.851ZM493.178 172.851C493.178 174.527 493.487 176.114 494.126 177.592C494.766 179.091 495.625 180.392 496.706 181.517C497.786 182.641 499.064 183.545 500.541 184.207C501.996 184.868 503.561 185.221 505.237 185.221C506.912 185.221 508.455 184.89 509.888 184.207C511.343 183.545 512.6 182.641 513.68 181.517C514.76 180.392 515.62 179.091 516.237 177.592C516.854 176.092 517.163 174.505 517.163 172.851C517.163 171.197 516.854 169.632 516.237 168.132C515.62 166.611 514.76 165.288 513.68 164.141C512.6 162.994 511.321 162.068 509.888 161.385C508.455 160.701 506.89 160.348 505.237 160.348C503.583 160.348 501.996 160.701 500.541 161.385C499.086 162.068 497.808 162.994 496.706 164.141C495.603 165.288 494.744 166.633 494.126 168.132C493.487 169.654 493.178 171.219 493.178 172.851Z" fill="#676767"/>
<path d="M538.81 160.481C539.295 159.863 539.847 159.268 540.464 158.673C541.081 158.077 541.764 157.548 542.536 157.085C543.308 156.622 544.145 156.247 545.093 155.96C546.019 155.674 547.077 155.519 548.223 155.519C550.384 155.519 552.302 155.894 553.955 156.644C555.608 157.394 556.997 158.408 558.121 159.709C559.246 161.01 560.083 162.509 560.657 164.251C561.23 165.993 561.516 167.867 561.516 169.852V187.779C561.516 188.374 561.362 188.837 561.053 189.124C560.745 189.432 560.348 189.565 559.885 189.565H557.923C557.262 189.565 556.843 189.433 556.667 189.168C556.49 188.903 556.38 188.462 556.38 187.845V169.852C556.38 168.794 556.226 167.713 555.939 166.611C555.652 165.508 555.167 164.516 554.506 163.612C553.845 162.708 552.963 161.98 551.883 161.429C550.803 160.856 549.458 160.591 547.871 160.591C546.879 160.591 545.821 160.767 544.762 161.142C543.704 161.517 542.712 162.046 541.831 162.73C540.949 163.435 540.221 164.295 539.648 165.354C539.075 166.39 538.788 167.581 538.788 168.926V188.44C538.788 189.212 538.392 189.609 537.62 189.609H534.909C534.071 189.609 533.674 189.212 533.674 188.44V157.239C533.674 156.887 533.784 156.6 534.027 156.401C534.247 156.181 534.534 156.093 534.842 156.093H537.576C537.951 156.093 538.237 156.203 538.458 156.446C538.678 156.666 538.788 156.953 538.788 157.261V160.525L538.81 160.481Z" fill="#676767"/>
<path d="M600.226 185.089C598.705 186.632 596.964 187.845 594.958 188.749C592.952 189.631 590.769 190.072 588.433 190.072C586.867 190.072 585.346 189.874 583.891 189.455C582.436 189.036 581.048 188.462 579.769 187.691C578.49 186.919 577.322 186.015 576.264 184.956C575.206 183.898 574.302 182.729 573.531 181.428C572.759 180.127 572.186 178.76 571.767 177.283C571.348 175.806 571.15 174.284 571.15 172.697C571.15 171.109 571.348 169.587 571.767 168.11C572.186 166.633 572.781 165.266 573.531 163.987C574.302 162.708 575.206 161.539 576.264 160.481C577.322 159.422 578.49 158.518 579.769 157.769C581.048 157.019 582.436 156.424 583.891 156.005C585.346 155.586 586.867 155.387 588.455 155.387C590.791 155.387 592.974 155.828 594.98 156.71C596.986 157.592 598.749 158.827 600.248 160.371V157.151C600.248 156.379 600.645 155.983 601.417 155.983H604.128C604.966 155.983 605.363 156.379 605.363 157.151V188.374C605.363 188.727 605.252 189.014 605.01 189.212C604.79 189.433 604.503 189.521 604.194 189.521H601.439C601.064 189.521 600.777 189.411 600.557 189.168C600.337 188.947 600.226 188.661 600.226 188.352V185.045V185.089ZM600.491 172.719C600.491 171.065 600.182 169.477 599.543 167.978C598.904 166.478 598.044 165.155 596.964 164.031C595.884 162.906 594.605 162.002 593.128 161.341C591.651 160.679 590.108 160.326 588.455 160.326C586.801 160.326 585.258 160.657 583.803 161.341C582.348 162.002 581.092 162.906 580.012 164.031C578.931 165.155 578.072 166.478 577.454 167.978C576.837 169.477 576.529 171.065 576.529 172.719C576.529 174.372 576.837 175.938 577.454 177.437C578.072 178.959 578.931 180.282 580.012 181.428C581.092 182.575 582.348 183.501 583.803 184.185C585.258 184.868 586.801 185.221 588.455 185.221C590.108 185.221 591.673 184.868 593.128 184.185C594.605 183.501 595.884 182.575 596.964 181.428C598.044 180.282 598.904 178.937 599.543 177.437C600.182 175.916 600.491 174.35 600.491 172.719Z" fill="#676767"/>
<path d="M622.249 188.396C622.249 189.168 621.852 189.565 621.08 189.565H618.369C617.531 189.565 617.134 189.168 617.134 188.396V147.251C617.134 146.898 617.245 146.611 617.487 146.413C617.73 146.214 617.994 146.104 618.303 146.104H621.058C621.433 146.104 621.72 146.214 621.94 146.457C622.161 146.677 622.271 146.964 622.271 147.273V188.418L622.249 188.396Z" fill="#676767"/>
<path d="M678.396 158.915C678.153 158.761 677.757 158.452 677.184 157.989C676.632 157.526 675.927 157.063 675.111 156.6C674.296 156.137 673.37 155.696 672.356 155.321C671.342 154.946 670.24 154.748 669.049 154.748C667.66 154.748 666.47 154.924 665.456 155.255C664.464 155.586 663.626 156.027 662.987 156.578C662.348 157.129 661.863 157.746 661.554 158.452C661.245 159.158 661.091 159.841 661.091 160.547C661.091 161.539 661.422 162.355 662.061 163.016C662.722 163.678 663.582 164.273 664.64 164.758C665.72 165.244 666.933 165.685 668.3 166.081C669.666 166.478 671.055 166.897 672.466 167.338C673.877 167.779 675.266 168.264 676.632 168.816C677.999 169.367 679.212 170.028 680.292 170.844C681.372 171.66 682.232 172.63 682.871 173.755C683.51 174.879 683.841 176.247 683.841 177.856C683.841 179.708 683.466 181.384 682.695 182.884C681.923 184.383 680.887 185.684 679.564 186.742C678.242 187.801 676.676 188.639 674.891 189.212C673.105 189.785 671.165 190.094 669.115 190.094C667.748 190.094 666.382 189.94 665.037 189.631C663.692 189.322 662.392 188.881 661.157 188.286C659.923 187.691 658.754 186.985 657.696 186.125C656.616 185.287 655.668 184.317 654.83 183.214C654.61 182.928 654.5 182.641 654.5 182.376C654.5 182.09 654.654 181.825 654.963 181.583L657.057 179.841C657.366 179.598 657.652 179.488 657.939 179.51C658.225 179.532 658.468 179.686 658.71 179.973L659.063 180.326C659.79 181.164 660.65 181.869 661.576 182.487C662.502 183.104 663.45 183.589 664.398 183.986C665.346 184.383 666.227 184.67 667.109 184.868C667.969 185.067 668.696 185.155 669.292 185.155C670.372 185.155 671.474 185.022 672.598 184.736C673.723 184.449 674.759 184.03 675.685 183.435C676.61 182.84 677.382 182.112 677.977 181.23C678.572 180.348 678.881 179.289 678.881 178.099C678.881 177.106 678.594 176.247 677.999 175.563C677.404 174.857 676.61 174.262 675.618 173.733C674.626 173.226 673.436 172.741 672.091 172.344C670.747 171.947 669.314 171.506 667.771 171.043C665.654 170.425 663.847 169.786 662.326 169.102C660.805 168.419 659.57 167.669 658.6 166.853C657.63 166.037 656.903 165.111 656.44 164.097C655.977 163.083 655.756 161.936 655.756 160.679C655.756 159.069 656.065 157.614 656.726 156.291C657.366 154.968 658.269 153.822 659.46 152.851C660.65 151.881 662.061 151.131 663.714 150.602C665.368 150.073 667.241 149.786 669.292 149.786C670.394 149.786 671.562 149.919 672.753 150.205C673.943 150.492 675.111 150.889 676.258 151.374C677.404 151.859 678.462 152.476 679.454 153.16C680.446 153.866 681.306 154.615 682.033 155.475C682.276 155.74 682.408 156.027 682.408 156.313C682.408 156.6 682.276 156.887 681.989 157.151L680.115 158.937C679.829 159.202 679.542 159.334 679.256 159.312C678.969 159.312 678.705 159.158 678.44 158.915H678.396Z" fill="#676767"/>
<path d="M693.827 172.851C693.827 170.469 694.29 168.242 695.216 166.126C696.142 164.009 697.398 162.179 698.963 160.591C700.529 159.003 702.38 157.769 704.475 156.842C706.569 155.938 708.795 155.475 711.154 155.475C712.719 155.475 714.24 155.674 715.717 156.093C717.194 156.512 718.561 157.085 719.862 157.857C721.162 158.628 722.309 159.533 723.367 160.591C724.425 161.649 725.329 162.818 726.1 164.119C726.872 165.42 727.467 166.787 727.864 168.264C728.283 169.742 728.481 171.263 728.481 172.851C728.481 174.438 728.283 175.96 727.864 177.437C727.445 178.915 726.85 180.282 726.1 181.561C725.351 182.84 724.425 184.008 723.367 185.067C722.309 186.125 721.14 187.029 719.862 187.779C718.583 188.528 717.194 189.124 715.717 189.543C714.24 189.962 712.719 190.16 711.154 190.16C709.589 190.16 708.068 189.962 706.591 189.543C705.114 189.124 703.747 188.551 702.446 187.779C701.168 187.029 700 186.125 698.941 185.067C697.883 184.008 696.979 182.84 696.23 181.561C695.48 180.282 694.885 178.893 694.466 177.437C694.048 175.96 693.827 174.438 693.827 172.851ZM699.096 172.851C699.096 174.527 699.404 176.114 700.044 177.592C700.683 179.091 701.543 180.392 702.623 181.517C703.703 182.641 704.982 183.545 706.459 184.207C707.913 184.868 709.479 185.221 711.154 185.221C712.829 185.221 714.372 184.89 715.805 184.207C717.26 183.545 718.517 182.641 719.597 181.517C720.677 180.392 721.537 179.091 722.154 177.592C722.771 176.092 723.08 174.505 723.08 172.851C723.08 171.197 722.771 169.632 722.154 168.132C721.537 166.611 720.677 165.288 719.597 164.141C718.517 162.994 717.238 162.068 715.805 161.385C714.372 160.701 712.807 160.348 711.154 160.348C709.501 160.348 707.913 160.701 706.459 161.385C705.004 162.068 703.725 162.994 702.623 164.141C701.521 165.288 700.661 166.633 700.044 168.132C699.404 169.654 699.096 171.219 699.096 172.851Z" fill="#676767"/>
<path d="M749.533 143.656C749.93 143.656 750.261 143.789 750.503 144.031C750.746 144.274 750.856 144.627 750.856 145.068V147.317C750.856 147.67 750.768 147.978 750.57 148.243C750.371 148.508 750.085 148.662 749.688 148.662C749.379 148.662 749.026 148.728 748.608 148.86C748.189 148.993 747.77 149.235 747.395 149.566C746.998 149.897 746.668 150.338 746.403 150.889C746.139 151.44 745.984 152.146 745.984 153.006V158.518H749.511C749.908 158.518 750.239 158.629 750.481 158.827C750.724 159.025 750.834 159.4 750.834 159.907V161.561C750.834 162.046 750.724 162.421 750.481 162.686C750.239 162.95 749.93 163.105 749.511 163.105H745.984V188.154C745.984 188.617 745.83 188.947 745.543 189.19C745.257 189.433 744.926 189.543 744.573 189.543H742.126C741.686 189.543 741.355 189.41 741.157 189.146C740.958 188.881 740.848 188.551 740.848 188.154V163.105H738.335C737.938 163.105 737.607 162.972 737.343 162.686C737.078 162.421 736.968 162.046 736.968 161.561V159.907C736.968 159.4 737.1 159.025 737.343 158.827C737.607 158.606 737.916 158.518 738.335 158.518H740.848V152.94C740.848 151.683 741.046 150.47 741.443 149.345C741.84 148.221 742.413 147.229 743.14 146.391C743.868 145.553 744.794 144.869 745.852 144.384C746.932 143.899 748.145 143.656 749.489 143.656H749.533Z" fill="#676767"/>
<path d="M769.528 189.918C768.712 189.918 767.896 189.829 767.081 189.631C766.265 189.433 765.538 189.102 764.876 188.617C764.215 188.132 763.686 187.47 763.289 186.632C762.87 185.794 762.672 184.736 762.672 183.435V160.547H759.608C759.167 160.547 758.836 160.481 758.638 160.348C758.417 160.216 758.329 159.929 758.329 159.466V157.019C758.329 156.556 758.439 156.269 758.638 156.159C758.836 156.049 759.167 155.982 759.608 155.982H762.672V150.36C762.672 150.051 762.738 149.853 762.848 149.72C762.981 149.588 763.179 149.478 763.488 149.39C763.598 149.345 763.818 149.323 764.127 149.279C764.458 149.235 764.788 149.169 765.141 149.103C765.56 149.037 766.023 148.949 766.508 148.86C766.816 148.816 767.037 148.86 767.213 148.904C767.389 148.971 767.522 149.081 767.588 149.213C767.676 149.345 767.72 149.522 767.742 149.698C767.742 149.875 767.764 150.073 767.764 150.294V155.96H771.424C771.82 155.96 772.129 156.049 772.305 156.225C772.482 156.401 772.592 156.71 772.592 157.173V159.268C772.592 159.731 772.504 160.04 772.305 160.238C772.129 160.437 771.82 160.525 771.424 160.525H767.764V183.347C767.764 183.964 767.919 184.383 768.205 184.648C768.492 184.89 768.911 185.023 769.44 185.023C769.836 185.023 770.167 185.155 770.432 185.397C770.696 185.64 770.828 185.993 770.828 186.434V188.595C770.828 188.992 770.696 189.322 770.454 189.565C770.211 189.807 769.88 189.918 769.484 189.918H769.528Z" fill="#676767"/>
<path d="M784.452 157.019C784.782 157.901 785.223 159.025 785.752 160.37C786.282 161.716 786.855 163.193 787.472 164.758C788.089 166.324 788.728 167.956 789.39 169.631C790.051 171.307 790.69 172.895 791.286 174.416C791.903 175.938 792.454 177.305 792.939 178.54C793.446 179.775 793.843 180.767 794.129 181.472C794.725 179.973 795.827 177.195 797.392 173.137C798.957 169.08 801.051 163.678 803.63 156.975C803.763 156.666 803.917 156.446 804.16 156.269C804.38 156.093 804.689 156.005 805.019 156.005H807.951C808.723 156.005 809.12 156.313 809.12 156.931C809.12 156.975 809.12 157.041 809.098 157.107C809.098 157.173 809.053 157.261 809.009 157.35C808.965 157.438 808.943 157.526 808.921 157.636L806.364 163.921L813.33 181.472C813.617 180.745 813.991 179.775 814.498 178.54C815.005 177.305 815.534 175.916 816.13 174.394C816.725 172.873 817.342 171.285 817.981 169.609C818.621 167.934 819.26 166.324 819.877 164.736C820.495 163.171 821.046 161.693 821.575 160.348C822.104 159.003 822.523 157.879 822.853 156.997C822.985 156.688 823.162 156.468 823.382 156.291C823.603 156.115 823.911 156.027 824.264 156.027H827.196C827.968 156.027 828.364 156.335 828.364 156.953C828.364 156.997 828.364 157.063 828.342 157.129C828.342 157.195 828.298 157.283 828.254 157.372C828.21 157.46 828.188 157.548 828.166 157.658L815.623 188.595C815.623 188.595 815.512 188.793 815.468 188.903C815.424 189.014 815.358 189.124 815.248 189.212C815.16 189.3 815.027 189.388 814.873 189.455C814.719 189.521 814.498 189.565 814.212 189.565H812.47C812.184 189.565 811.963 189.521 811.809 189.455C811.655 189.388 811.522 189.3 811.434 189.212C811.346 189.124 811.258 189.014 811.214 188.903C811.17 188.793 811.126 188.683 811.059 188.595L803.675 170.624L796.4 188.595C796.4 188.595 796.29 188.793 796.246 188.903C796.202 189.014 796.135 189.124 796.025 189.212C795.915 189.3 795.805 189.388 795.65 189.455C795.496 189.521 795.276 189.565 794.989 189.565H793.248C792.961 189.565 792.741 189.521 792.586 189.455C792.432 189.388 792.3 189.3 792.211 189.212C792.123 189.124 792.035 189.014 791.991 188.903C791.947 188.793 791.903 188.683 791.837 188.595L779.139 157.68C779.139 157.68 779.095 157.57 779.095 157.504C779.051 157.372 779.051 157.195 779.051 156.975C779.051 156.357 779.448 156.049 780.263 156.049H783.041C783.394 156.049 783.68 156.137 783.923 156.313C784.143 156.49 784.32 156.732 784.452 157.019Z" fill="#676767"/>
<path d="M865.157 185.089C863.635 186.632 861.894 187.845 859.888 188.749C857.882 189.631 855.699 190.072 853.363 190.072C851.798 190.072 850.277 189.874 848.822 189.455C847.367 189.036 845.978 188.462 844.699 187.691C843.421 186.919 842.252 186.015 841.194 184.956C840.136 183.898 839.232 182.729 838.461 181.428C837.689 180.127 837.116 178.76 836.697 177.283C836.278 175.806 836.08 174.284 836.08 172.697C836.08 171.109 836.278 169.587 836.697 168.11C837.116 166.633 837.711 165.266 838.461 163.987C839.232 162.708 840.136 161.539 841.194 160.481C842.252 159.422 843.421 158.518 844.699 157.769C845.978 157.019 847.367 156.424 848.822 156.005C850.277 155.586 851.798 155.387 853.385 155.387C855.722 155.387 857.904 155.828 859.91 156.71C861.916 157.592 863.68 158.827 865.179 160.371V157.151C865.179 156.379 865.575 155.983 866.347 155.983H869.058C869.896 155.983 870.293 156.379 870.293 157.151V188.374C870.293 188.727 870.183 189.014 869.94 189.212C869.72 189.433 869.433 189.521 869.125 189.521H866.369C865.994 189.521 865.708 189.411 865.487 189.168C865.267 188.947 865.157 188.661 865.157 188.352V185.045V185.089ZM865.421 172.719C865.421 171.065 865.112 169.477 864.473 167.978C863.834 166.478 862.974 165.155 861.894 164.031C860.814 162.906 859.535 162.002 858.058 161.341C856.581 160.679 855.038 160.326 853.385 160.326C851.731 160.326 850.188 160.657 848.733 161.341C847.279 162.002 846.022 162.906 844.942 164.031C843.862 165.155 843.002 166.478 842.385 167.978C841.767 169.477 841.459 171.065 841.459 172.719C841.459 174.372 841.767 175.938 842.385 177.437C843.002 178.959 843.862 180.282 844.942 181.428C846.022 182.575 847.279 183.501 848.733 184.185C850.188 184.868 851.731 185.221 853.385 185.221C855.038 185.221 856.603 184.868 858.058 184.185C859.535 183.501 860.814 182.575 861.894 181.428C862.974 180.282 863.834 178.937 864.473 177.437C865.112 175.916 865.421 174.35 865.421 172.719Z" fill="#676767"/>
<path d="M887.091 159.577C887.311 159.18 887.598 158.739 887.995 158.254C888.391 157.769 888.876 157.328 889.428 156.931C889.979 156.534 890.64 156.181 891.345 155.916C892.073 155.652 892.866 155.497 893.726 155.497C894.674 155.497 895.534 155.542 896.305 155.608C897.077 155.696 897.804 155.828 898.488 156.027C899.171 156.225 899.833 156.512 900.472 156.842C901.111 157.195 901.794 157.614 902.5 158.143C902.72 158.298 902.941 158.496 903.205 158.761C903.47 159.003 903.58 159.29 903.58 159.643C903.58 159.841 903.536 160.018 903.448 160.172L901.883 162.576C901.64 162.884 901.398 163.017 901.155 163.017C901.023 163.017 900.891 162.972 900.758 162.862C900.626 162.774 900.494 162.664 900.318 162.531C899.237 161.804 898.157 161.253 897.143 160.9C896.107 160.547 895.027 160.393 893.858 160.393C892.977 160.393 892.139 160.569 891.323 160.9C890.508 161.23 889.802 161.716 889.163 162.333C888.546 162.95 888.039 163.722 887.664 164.626C887.289 165.53 887.091 166.567 887.091 167.691V188.352C887.091 189.124 886.694 189.521 885.922 189.521H883.189C882.373 189.521 881.977 189.124 881.977 188.352V157.151C881.977 156.798 882.087 156.512 882.329 156.313C882.55 156.093 882.836 156.005 883.145 156.005H885.9C886.275 156.005 886.562 156.115 886.782 156.357C887.003 156.578 887.113 156.865 887.113 157.173V159.555L887.091 159.577Z" fill="#676767"/>
<path d="M937.506 181.869C937.661 181.737 937.837 181.605 938.014 181.472C938.19 181.34 938.388 181.296 938.587 181.296C938.851 181.296 939.116 181.45 939.358 181.781C939.711 182.266 939.998 182.641 940.218 182.95C940.438 183.259 940.615 183.479 940.769 183.655C940.901 183.854 941.012 183.986 941.078 184.074C941.166 184.185 941.232 184.295 941.298 184.405C941.342 184.515 941.386 184.648 941.386 184.78C941.386 184.978 941.32 185.177 941.166 185.397C941.012 185.618 940.747 185.883 940.394 186.169C939.645 186.765 938.851 187.316 938.036 187.801C937.22 188.286 936.36 188.705 935.456 189.058C934.553 189.411 933.605 189.675 932.613 189.874C931.621 190.072 930.562 190.16 929.46 190.16C927.895 190.16 926.374 189.962 924.919 189.543C923.464 189.124 922.075 188.529 920.797 187.779C919.496 187.007 918.328 186.103 917.27 185.045C916.212 183.986 915.286 182.818 914.514 181.539C913.743 180.26 913.147 178.871 912.729 177.415C912.31 175.938 912.089 174.416 912.089 172.829C912.089 171.241 912.288 169.72 912.684 168.242C913.081 166.765 913.654 165.376 914.382 164.097C915.109 162.818 915.991 161.649 917.027 160.591C918.063 159.533 919.232 158.629 920.532 157.879C921.833 157.129 923.222 156.534 924.721 156.115C926.22 155.696 927.807 155.497 929.482 155.497C930.805 155.497 932.106 155.652 933.406 155.938C934.707 156.247 935.963 156.666 937.154 157.239C938.344 157.813 939.468 158.518 940.527 159.356C941.563 160.194 942.511 161.164 943.326 162.267C944.451 163.788 945.288 165.508 945.839 167.449C946.39 169.389 946.633 171.616 946.611 174.13C946.611 174.968 946.214 175.365 945.442 175.365H917.622C917.909 176.776 918.438 178.077 919.188 179.267C919.937 180.458 920.841 181.517 921.877 182.399C922.913 183.281 924.081 183.986 925.382 184.493C926.661 185.001 927.983 185.243 929.372 185.243C930.342 185.243 931.224 185.155 931.995 184.956C932.789 184.78 933.494 184.515 934.134 184.229C934.773 183.942 935.368 183.567 935.919 183.17C936.47 182.773 936.999 182.354 937.506 181.936L937.551 181.891L937.506 181.869ZM923.045 162.355C921.701 163.259 920.554 164.384 919.584 165.751C918.614 167.118 917.953 168.617 917.6 170.249H941.452C941.254 168.794 940.813 167.471 940.086 166.258C939.38 165.067 938.476 164.031 937.418 163.193C936.338 162.355 935.126 161.694 933.781 161.23C932.436 160.767 931.047 160.525 929.593 160.525C928.446 160.525 927.322 160.679 926.198 160.966C925.073 161.275 924.015 161.716 923.023 162.333L923.045 162.355Z" fill="#676767"/>
</g>
<defs>
<clipPath id="clip0_9_2">
<rect width="970" height="205" fill="white"/>
</clipPath>
</defs>
</svg>
